<svg width="11" height="11" viewBox="0 0 11 11" fill="none" xmlns="http://www.w3.org/2000/svg">
<path fill-rule="evenodd" clip-rule="evenodd" d="M5.5 10C7.98528 10 10 7.98528 10 5.5C10 3.01472 7.98528 1 5.5 1C3.01472 1 1 3.01472 1 5.5C1 7.98528 3.01472 10 5.5 10ZM5.5 11C8.53757 11 11 8.53757 11 5.5C11 2.46243 8.53757 0 5.5 0C2.46243 0 0 2.46243 0 5.5C0 8.53757 2.46243 11 5.5 11Z" fill="white"/>
<path d="M5.87778 3L5.82222 6.27907H5.17778L5.12222 3H5.87778ZM5.5 8C5.36296 8 5.24537 7.94864 5.14722 7.84593C5.04907 7.74322 5 7.62015 5 7.47674C5 7.33333 5.04907 7.21027 5.14722 7.10756C5.24537 7.00485 5.36296 6.95349 5.5 6.95349C5.63704 6.95349 5.75463 7.00485 5.85278 7.10756C5.95093 7.21027 6 7.33333 6 7.47674C6 7.5717 5.97685 7.65891 5.93056 7.73837C5.88611 7.81783 5.82593 7.88178 5.75 7.93023C5.67593 7.97674 5.59259 8 5.5 8Z" fill="white"/>
<path fill-rule="evenodd" clip-rule="evenodd" d="M5.97949 2.9L5.92054 6.37907H5.07946L5.02051 2.9H5.97949ZM5.80318 8.01492C5.71222 8.07203 5.61025 8.1 5.5 8.1C5.33455 8.1 5.19116 8.03666 5.07492 7.91502C4.95881 7.7935 4.9 7.64562 4.9 7.47674C4.9 7.30787 4.95881 7.15999 5.07492 7.03847C5.19116 6.91683 5.33455 6.85349 5.5 6.85349C5.66545 6.85349 5.80884 6.91683 5.92508 7.03847C6.04119 7.15999 6.1 7.30787 6.1 7.47674C6.1 7.58849 6.07261 7.6929 6.0174 7.78796C5.96503 7.88131 5.89293 7.95765 5.80318 8.01492ZM5.93056 7.73837C5.97685 7.65891 6 7.5717 6 7.47674C6 7.33333 5.95093 7.21027 5.85278 7.10756C5.75463 7.00485 5.63704 6.95349 5.5 6.95349C5.36296 6.95349 5.24537 7.00485 5.14722 7.10756C5.04907 7.21027 5 7.33333 5 7.47674C5 7.62015 5.04907 7.74322 5.14722 7.84593C5.24537 7.94864 5.36296 8 5.5 8C5.59259 8 5.67593 7.97674 5.75 7.93023C5.82593 7.88178 5.88611 7.81783 5.93056 7.73837ZM5.87778 3H5.12222L5.17778 6.27907H5.82222L5.87778 3Z" fill="white"/>
</svg>
