<svg width="12" height="12" viewBox="0 0 12 12" fill="none" xmlns="http://www.w3.org/2000/svg">
<path d="M2.78158 2.10835C2.71908 1.87323 2.50479 1.7 2.25 1.7C1.94625 1.7 1.7 1.94625 1.7 2.25V3.51166C1.7 3.81541 1.94625 4.06165 2.25 4.06165H3.5C3.80375 4.06165 4.05 3.81541 4.05 3.51166C4.05 3.2079 3.80375 2.96166 3.5 2.96166H3.47565C4.16043 2.39201 5.04027 2.05 6 2.05C8.18154 2.05 9.95 3.81847 9.95 6C9.95 8.18154 8.18154 9.95 6 9.95C3.81847 9.95 2.05 8.18154 2.05 6C2.05 5.69624 1.80375 5.45 1.5 5.45C1.19625 5.45 0.95 5.69624 0.95 6C0.95 8.78901 3.21096 11.05 6 11.05C8.78901 11.05 11.05 8.78901 11.05 6C11.05 3.21096 8.78901 0.95 6 0.95C4.77674 0.95 3.65511 1.3852 2.78158 2.10835Z" fill="white" stroke="white" stroke-width="0.1"/>
</svg>
