<svg width="10" height="10" viewBox="0 0 10 10" fill="none" xmlns="http://www.w3.org/2000/svg">
<path fill-rule="evenodd" clip-rule="evenodd" d="M4.1179 1.1763C2.49321 1.1763 1.1763 2.49323 1.1763 4.1179C1.1763 5.74202 2.49323 7.05893 4.1179 7.05893C5.74202 7.05893 7.05893 5.742 7.05893 4.1179C7.05893 2.49321 5.742 1.1763 4.1179 1.1763ZM0 4.1179C0 1.84365 1.84365 0 4.1179 0C6.39158 0 8.23523 1.84365 8.23523 4.1179C8.23523 6.39158 6.39158 8.23523 4.1179 8.23523C1.84365 8.23523 0 6.39158 0 4.1179Z" fill="white"/>
<path fill-rule="evenodd" clip-rule="evenodd" d="M6.34866 6.34867C6.57863 6.11925 6.95087 6.11925 7.18084 6.34867L9.82794 8.99577C10.0574 9.22573 10.0574 9.59798 9.82794 9.82794C9.59797 10.0574 9.22573 10.0574 8.99576 9.82794L6.34866 7.18084C6.11925 6.95088 6.11925 6.57863 6.34866 6.34867Z" fill="white"/>
</svg>
