<svg width="10" height="10" viewBox="0 0 10 10" fill="none" xmlns="http://www.w3.org/2000/svg">
<path d="M5 7.69263C6.48709 7.69263 7.69263 6.4871 7.69263 5C7.69263 3.5129 6.48709 2.30737 5 2.30737C3.5129 2.30737 2.30737 3.5129 2.30737 5C2.30737 6.4871 3.5129 7.69263 5 7.69263Z" fill="white"/>
<path d="M5.38421 1.15369C5.38434 1.20423 5.37451 1.2543 5.35526 1.30104C5.33602 1.34778 5.30774 1.39025 5.27205 1.42604C5.23636 1.46183 5.19395 1.49023 5.14727 1.5096C5.10059 1.52898 5.05054 1.53895 5 1.53895C4.94945 1.53895 4.8994 1.52898 4.85272 1.5096C4.80604 1.49023 4.76364 1.46183 4.72795 1.42604C4.69225 1.39025 4.66398 1.34778 4.64473 1.30104C4.62548 1.2543 4.61565 1.20423 4.61579 1.15369V0.384212C4.61565 0.333718 4.62549 0.283694 4.64475 0.237017C4.66401 0.190339 4.6923 0.147929 4.72801 0.112224C4.76371 0.0765194 4.80612 0.048224 4.8528 0.0289648C4.89948 0.00970563 4.9495 -0.000137462 5 1.45004e-06C5.05049 -0.000137462 5.10051 0.00970563 5.14719 0.0289648C5.19387 0.048224 5.23628 0.0765194 5.27198 0.112224C5.30769 0.147929 5.33598 0.190339 5.35524 0.237017C5.3745 0.283694 5.38435 0.333718 5.38421 0.384212V1.15369Z" fill="white"/>
<path d="M5.38421 9.61578C5.38435 9.66627 5.3745 9.7163 5.35524 9.76298C5.33598 9.80965 5.30769 9.85206 5.27198 9.88777C5.23628 9.92347 5.19387 9.95177 5.14719 9.97103C5.10051 9.99029 5.05049 10.0001 5 9.99999C4.9495 10.0001 4.89948 9.99029 4.8528 9.97103C4.80612 9.95177 4.76371 9.92347 4.72801 9.88777C4.6923 9.85206 4.66401 9.80965 4.64475 9.76298C4.62549 9.7163 4.61565 9.66627 4.61579 9.61578V8.84631C4.61565 8.79576 4.62548 8.74569 4.64473 8.69895C4.66398 8.65222 4.69225 8.60974 4.72795 8.57395C4.76364 8.53816 4.80604 8.50977 4.85272 8.49039C4.8994 8.47102 4.94945 8.46104 5 8.46104C5.05054 8.46104 5.10059 8.47102 5.14727 8.49039C5.19395 8.50977 5.23636 8.53816 5.27205 8.57395C5.30774 8.60974 5.33602 8.65222 5.35526 8.69895C5.37451 8.74569 5.38434 8.79576 5.38421 8.84631V9.61578Z" fill="white"/>
<path d="M10 5C10.0001 5.05049 9.99029 5.10051 9.97104 5.14719C9.95178 5.19387 9.92348 5.23628 9.88778 5.27198C9.85207 5.30769 9.80966 5.33598 9.76298 5.35524C9.71631 5.3745 9.66628 5.38435 9.61579 5.38421H8.84632C8.79577 5.38434 8.7457 5.37451 8.69896 5.35526C8.65223 5.33602 8.60975 5.30774 8.57396 5.27205C8.53817 5.23636 8.50977 5.19395 8.4904 5.14727C8.47102 5.10059 8.46105 5.05054 8.46105 5C8.46105 4.94945 8.47102 4.8994 8.4904 4.85272C8.50977 4.80604 8.53817 4.76364 8.57396 4.72795C8.60975 4.69225 8.65223 4.66398 8.69896 4.64473C8.7457 4.62548 8.79577 4.61565 8.84632 4.61579H9.61579C9.66628 4.61565 9.71631 4.62549 9.76298 4.64475C9.80966 4.66401 9.85207 4.6923 9.88778 4.72801C9.92348 4.76371 9.95178 4.80612 9.97104 4.8528C9.99029 4.89948 10.0001 4.9495 10 5Z" fill="white"/>
<path d="M1.53895 5C1.53895 5.05054 1.52898 5.10059 1.5096 5.14727C1.49023 5.19395 1.46183 5.23636 1.42604 5.27205C1.39025 5.30774 1.34778 5.33602 1.30104 5.35526C1.2543 5.37451 1.20423 5.38434 1.15369 5.38421H0.384212C0.333718 5.38435 0.283694 5.3745 0.237017 5.35524C0.190339 5.33598 0.147929 5.30769 0.112224 5.27198C0.0765194 5.23628 0.048224 5.19387 0.0289648 5.14719C0.00970563 5.10051 -0.000137462 5.05049 1.45004e-06 5C-0.000137462 4.9495 0.00970563 4.89948 0.0289648 4.8528C0.048224 4.80612 0.0765194 4.76371 0.112224 4.72801C0.147929 4.6923 0.190339 4.66401 0.237017 4.64475C0.283694 4.62549 0.333718 4.61565 0.384212 4.61579H1.15369C1.20423 4.61565 1.2543 4.62548 1.30104 4.64473C1.34778 4.66398 1.39025 4.69225 1.42604 4.72795C1.46183 4.76364 1.49023 4.80604 1.5096 4.85272C1.52898 4.8994 1.53895 4.94945 1.53895 5Z" fill="white"/>
<path d="M2.55263 2.00842C2.58844 2.04411 2.61685 2.08652 2.63623 2.13321C2.65562 2.1799 2.66559 2.22996 2.66559 2.28052C2.66559 2.33108 2.65562 2.38114 2.63623 2.42783C2.61685 2.47452 2.58844 2.51693 2.55263 2.55263C2.51694 2.58843 2.47453 2.61684 2.42784 2.63622C2.38115 2.65561 2.33109 2.66559 2.28053 2.66559C2.22997 2.66559 2.17991 2.65561 2.13322 2.63622C2.08652 2.61684 2.04412 2.58843 2.00842 2.55263L1.46527 2.00842C1.42949 1.97281 1.40111 1.93049 1.38174 1.88389C1.36237 1.83728 1.35239 1.78731 1.35239 1.73684C1.35239 1.68637 1.36237 1.63639 1.38174 1.58979C1.40111 1.54318 1.42949 1.50086 1.46527 1.46526C1.50087 1.42948 1.54319 1.4011 1.58979 1.38173C1.6364 1.36236 1.68637 1.35239 1.73684 1.35239C1.78731 1.35239 1.83729 1.36236 1.88389 1.38173C1.9305 1.4011 1.97282 1.42948 2.00842 1.46526L2.55263 2.00842Z" fill="white"/>
<path d="M8.53474 7.99158C8.57054 8.02728 8.59895 8.06968 8.61833 8.11638C8.63772 8.16307 8.6477 8.21313 8.6477 8.26369C8.6477 8.31424 8.63772 8.3643 8.61833 8.411C8.59895 8.45769 8.57054 8.5001 8.53474 8.53579C8.49913 8.57157 8.45681 8.59995 8.41021 8.61932C8.3636 8.63869 8.31363 8.64866 8.26316 8.64866C8.21269 8.64866 8.16271 8.63869 8.11611 8.61932C8.0695 8.59995 8.02718 8.57157 7.99158 8.53579L7.44737 7.99158C7.41159 7.95598 7.38321 7.91366 7.36384 7.86705C7.34447 7.82045 7.3345 7.77047 7.3345 7.72C7.3345 7.66953 7.34447 7.61956 7.36384 7.57295C7.38321 7.52635 7.41159 7.48403 7.44737 7.44843C7.48306 7.41262 7.52547 7.38421 7.57216 7.36483C7.61886 7.34544 7.66892 7.33546 7.71947 7.33546C7.77003 7.33546 7.82009 7.34544 7.86678 7.36483C7.91348 7.38421 7.95588 7.41262 7.99158 7.44843L8.53474 7.99158Z" fill="white"/>
<path d="M8.53473 1.46526C8.57051 1.50086 8.59889 1.54318 8.61826 1.58979C8.63763 1.63639 8.6476 1.68637 8.6476 1.73684C8.6476 1.78731 8.63763 1.83728 8.61826 1.88389C8.59889 1.93049 8.57051 1.97281 8.53473 2.00842L7.99157 2.55263C7.95588 2.58843 7.91347 2.61684 7.86678 2.63622C7.82009 2.65561 7.77003 2.66559 7.71947 2.66559C7.66891 2.66559 7.61885 2.65561 7.57216 2.63622C7.52547 2.61684 7.48306 2.58843 7.44736 2.55263C7.41156 2.51693 7.38315 2.47452 7.36377 2.42783C7.34438 2.38114 7.3344 2.33108 7.3344 2.28052C7.3344 2.22996 7.34438 2.1799 7.36377 2.13321C7.38315 2.08652 7.41156 2.04411 7.44736 2.00842L7.99157 1.46526C8.02718 1.42948 8.0695 1.4011 8.1161 1.38173C8.16271 1.36236 8.21268 1.35239 8.26315 1.35239C8.31362 1.35239 8.3636 1.36236 8.4102 1.38173C8.45681 1.4011 8.49913 1.42948 8.53473 1.46526Z" fill="white"/>
<path d="M2.55263 7.44843C2.5884 7.48403 2.61679 7.52635 2.63616 7.57295C2.65553 7.61956 2.6655 7.66953 2.6655 7.72C2.6655 7.77047 2.65553 7.82045 2.63616 7.86705C2.61679 7.91366 2.5884 7.95598 2.55263 7.99158L2.00842 8.53579C1.97282 8.57157 1.9305 8.59995 1.88389 8.61932C1.83729 8.63869 1.78731 8.64866 1.73684 8.64866C1.68637 8.64866 1.6364 8.63869 1.58979 8.61932C1.54319 8.59995 1.50087 8.57157 1.46526 8.53579C1.42946 8.5001 1.40105 8.45769 1.38166 8.411C1.36228 8.3643 1.3523 8.31424 1.3523 8.26369C1.3523 8.21313 1.36228 8.16307 1.38166 8.11638C1.40105 8.06968 1.42946 8.02728 1.46526 7.99158L2.00842 7.44843C2.04411 7.41262 2.08652 7.38421 2.13322 7.36483C2.17991 7.34544 2.22997 7.33546 2.28053 7.33546C2.33108 7.33546 2.38114 7.34544 2.42784 7.36483C2.47453 7.38421 2.51694 7.41262 2.55263 7.44843Z" fill="white"/>
</svg>
