<?xml version="1.0" encoding="utf-8"?><svg xmlns="http://www.w3.org/2000/svg" xmlns:xlink="http://www.w3.org/1999/xlink"><symbol viewBox="0 0 11 11" id="alert" xmlns="http://www.w3.org/2000/svg"><path fill-rule="evenodd" clip-rule="evenodd" d="M5.5 10a4.5 4.5 0 1 0 0-9 4.5 4.5 0 0 0 0 9Zm0 1a5.5 5.5 0 1 0 0-11 5.5 5.5 0 0 0 0 11Z"/><path d="m5.878 3-.056 3.28h-.644L5.122 3h.756ZM5.5 8a.47.47 0 0 1-.353-.154.516.516 0 0 1-.147-.37c0-.143.05-.266.147-.368a.47.47 0 0 1 .353-.155.47.47 0 0 1 .353.155.516.516 0 0 1 .147.369.51.51 0 0 1-.07.261.532.532 0 0 1-.18.192.46.46 0 0 1-.25.07Z"/><path fill-rule="evenodd" clip-rule="evenodd" d="m5.98 2.9-.06 3.48h-.84L5.02 2.9h.96Zm-.177 5.115A.56.56 0 0 1 5.5 8.1a.57.57 0 0 1-.425-.185.615.615 0 0 1-.175-.438c0-.17.059-.317.175-.439a.57.57 0 0 1 .425-.185.57.57 0 0 1 .425.185c.116.122.175.27.175.439a.635.635 0 0 1-.297.538Zm.128-.277A.51.51 0 0 0 6 7.477a.516.516 0 0 0-.147-.37.47.47 0 0 0-.353-.154.47.47 0 0 0-.353.155.516.516 0 0 0-.147.369c0 .143.05.266.147.369A.47.47 0 0 0 5.5 8a.46.46 0 0 0 .25-.07.532.532 0 0 0 .18-.192ZM5.878 3h-.756l.056 3.28h.644L5.878 3Z"/></symbol><symbol viewBox="0 0 12 12" id="load" xmlns="http://www.w3.org/2000/svg"><path d="M2.782 2.108A.55.55 0 0 0 1.7 2.25v1.262c0 .303.246.55.55.55H3.5a.55.55 0 1 0 0-1.1h-.024A3.95 3.95 0 1 1 2.05 6a.55.55 0 0 0-1.1 0 5.05 5.05 0 1 0 1.832-3.892Z" stroke="#fff" stroke-width=".1"/></symbol><symbol viewBox="0 0 10 10" id="moon" xmlns="http://www.w3.org/2000/svg"><path d="M0 4.73a5.27 5.27 0 0 0 9.974 2.375.238.238 0 0 0-.32-.319A4.795 4.795 0 0 1 3.216.346a.237.237 0 0 0-.319-.32A5.25 5.25 0 0 0 0 4.73Z"/></symbol><symbol viewBox="0 0 10 10" id="search" xmlns="http://www.w3.org/2000/svg"><path fill-rule="evenodd" clip-rule="evenodd" d="M4.118 1.176a2.941 2.941 0 1 0 0 5.883 2.941 2.941 0 0 0 0-5.883ZM0 4.118a4.118 4.118 0 1 1 8.236 0 4.118 4.118 0 0 1-8.236 0Z"/><path fill-rule="evenodd" clip-rule="evenodd" d="M6.349 6.349a.59.59 0 0 1 .832 0l2.647 2.647a.589.589 0 0 1-.832.832L6.349 7.18a.59.59 0 0 1 0-.832Z"/></symbol><symbol viewBox="0 0 10 10" id="sun" xmlns="http://www.w3.org/2000/svg"><path d="M5 7.693a2.693 2.693 0 1 0 0-5.386 2.693 2.693 0 0 0 0 5.386ZM5.384 1.154a.384.384 0 1 1-.768 0v-.77a.383.383 0 0 1 .656-.272.383.383 0 0 1 .112.272v.77ZM5.384 9.616a.383.383 0 0 1-.656.272.383.383 0 0 1-.112-.272v-.77a.384.384 0 1 1 .768 0v.77ZM10 5a.384.384 0 0 1-.384.384h-.77a.384.384 0 1 1 0-.768h.77A.383.383 0 0 1 10 5ZM1.539 5a.384.384 0 0 1-.385.384h-.77a.383.383 0 0 1-.272-.656.383.383 0 0 1 .272-.112h.77A.384.384 0 0 1 1.539 5ZM2.553 2.008a.384.384 0 1 1-.545.545l-.543-.545a.383.383 0 1 1 .543-.543l.545.543ZM8.535 7.992a.384.384 0 1 1-.543.544l-.545-.544a.383.383 0 0 1 .272-.657.384.384 0 0 1 .273.113l.543.544ZM8.535 1.465a.383.383 0 0 1 0 .543l-.543.545a.384.384 0 1 1-.545-.545l.545-.543a.383.383 0 0 1 .543 0ZM2.553 7.448a.383.383 0 0 1 0 .544l-.545.544a.383.383 0 0 1-.656-.272.384.384 0 0 1 .113-.272l.543-.544a.384.384 0 0 1 .545 0Z"/></symbol></svg>